<svg id="cross" width="17" height="17" viewBox="0 0 17 17" fill="none" xmlns="http://www.w3.org/2000/svg">
<path fill-rule="evenodd" clip-rule="evenodd" d="M16.7734 1.32064C16.8453 1.24881 16.9022 1.16352 16.9411 1.06966C16.98 0.975805 17 0.875207 17 0.773615C17 0.672022 16.98 0.571424 16.9411 0.477565C16.9022 0.383706 16.8453 0.298423 16.7734 0.226586C16.7016 0.15475 16.6163 0.0977657 16.5224 0.058888C16.4286 0.0200102 16.328 0 16.2264 0C16.1248 0 16.0242 0.0200102 15.9303 0.058888C15.8365 0.0977657 15.7512 0.15475 15.6794 0.226586L8.5 7.40749L1.32064 0.226586C1.24881 0.15475 1.16352 0.0977657 1.06966 0.058888C0.975805 0.0200102 0.875207 7.57011e-10 0.773615 0C0.672022 -7.56836e-10 0.571424 0.0200102 0.477565 0.058888C0.383706 0.0977657 0.298423 0.15475 0.226586 0.226586C0.15475 0.298423 0.0977657 0.383706 0.058888 0.477565C0.0200102 0.571424 -7.56923e-10 0.672022 0 0.773615C7.56923e-10 0.875207 0.0200102 0.975805 0.058888 1.06966C0.0977657 1.16352 0.15475 1.24881 0.226586 1.32064L7.40749 8.5L0.226586 15.6794C0.0815054 15.8244 0 16.0212 0 16.2264C0 16.4316 0.0815054 16.6283 0.226586 16.7734C0.371667 16.9185 0.568439 17 0.773615 17C0.97879 17 1.17556 16.9185 1.32064 16.7734L8.5 9.59251L15.6794 16.7734C15.8244 16.9185 16.0212 17 16.2264 17C16.4316 17 16.6283 16.9185 16.7734 16.7734C16.9185 16.6283 17 16.4316 17 16.2264C17 16.0212 16.9185 15.8244 16.7734 15.6794L9.59251 8.5L16.7734 1.32064Z" fill="#151515"/>
</svg>
