<svg width="23" height="22" viewBox="0 0 23 22" fill="none" xmlns="http://www.w3.org/2000/svg">
<path d="M16.4287 0H6.57107C3.22349 0 0.5 2.72362 0.5 6.07121V15.9288C0.5 19.2765 3.22349 22 6.57107 22H16.4287C19.7765 22 22.5 19.2764 22.5 15.9288V6.07121C22.5001 2.72362 19.7765 0 16.4287 0ZM20.5482 15.9288C20.5482 18.2002 18.7002 20.0481 16.4288 20.0481H6.57107C4.29979 20.0482 2.45195 18.2002 2.45195 15.9288V6.07121C2.45195 3.79992 4.29979 1.95195 6.57107 1.95195H16.4287C18.7001 1.95195 20.5481 3.79992 20.5481 6.07121V15.9288H20.5482Z" fill="#F8F8F8"/>
<path d="M11.5 6C8.46725 6 6 8.46731 6 11.5001C6 14.5328 8.46725 17 11.5 17C14.5327 17 17 14.5328 17 11.5001C17 8.46731 14.5327 6 11.5 6ZM11.5 15.106C9.51163 15.106 7.89381 13.4884 7.89381 11.5C7.89381 9.51145 9.5115 7.89373 11.5 7.89373C13.4885 7.89373 15.1062 9.51145 15.1062 11.5C15.1062 13.4884 13.4884 15.106 11.5 15.106Z" fill="#F8F8F8"/>
<path d="M17.6598 4.39999C17.313 4.39999 16.9724 4.54039 16.7274 4.78639C16.4813 5.03119 16.3398 5.37199 16.3398 5.71999C16.3398 6.06691 16.4814 6.40759 16.7274 6.65359C16.9722 6.89839 17.313 7.03999 17.6598 7.03999C18.0078 7.03999 18.3474 6.89839 18.5934 6.65359C18.8394 6.40759 18.9798 6.06679 18.9798 5.71999C18.9798 5.37199 18.8394 5.03119 18.5934 4.78639C18.3486 4.54039 18.0078 4.39999 17.6598 4.39999Z" fill="#F8F8F8"/>
</svg>
