<svg width="22" height="23" viewBox="0 0 22 23" fill="none" xmlns="http://www.w3.org/2000/svg">
<g clip-path="url(#clip0_425_2)">
<path d="M17.5418 14.6796C15.3637 17.2833 12.7417 19.3333 9.749 20.7838C8.6096 21.3238 7.0858 21.9644 5.3882 22.0742C5.2829 22.0788 5.1822 22.0834 5.077 22.0834C3.9376 22.0834 3.0224 21.6899 2.2765 20.8799C2.272 20.8754 2.2628 20.8662 2.2582 20.857C1.9928 20.5367 1.6908 20.2485 1.3751 19.9419C1.16 19.7359 0.9404 19.5209 0.7299 19.3012C-0.2448 18.2854 -0.2448 16.995 0.739 16.0111L3.4891 13.261C3.9559 12.776 4.5142 12.5197 5.0999 12.5197C5.6856 12.5197 6.2484 12.776 6.7289 13.2564L8.3671 14.8946C8.5181 14.8077 8.6737 14.7299 8.8201 14.6567C9.0031 14.5652 9.1724 14.4782 9.3234 14.3821C10.8152 13.4349 12.1697 12.1994 13.4647 10.6116C14.119 9.78332 14.5583 9.08778 14.8649 8.37851C14.4348 7.98956 14.0321 7.5823 13.6431 7.1842C13.5058 7.04234 13.364 6.90049 13.2221 6.75864C12.7279 6.26444 12.4625 5.69245 12.4625 5.1113C12.4625 4.53016 12.7233 3.95817 13.2221 3.46397L14.5858 2.10035C14.7459 1.94019 14.8969 1.78461 15.0525 1.62445C15.3545 1.31329 15.6703 0.992975 15.9814 0.704692C16.4527 0.242524 17.0064 0 17.5921 0C18.1733 0 18.7315 0.242524 19.2212 0.709268L20.9326 2.42066C21.5549 3.04299 21.9072 3.79801 21.9804 4.67202C22.0674 5.76566 21.866 6.92795 21.3444 8.33275C20.5436 10.5063 19.3356 12.5243 17.5418 14.6796ZM20.8639 4.76811C20.809 4.15951 20.5756 3.65159 20.1364 3.2123L18.4341 1.51005C18.1687 1.2538 17.8758 1.1211 17.5921 1.1211C17.313 1.1211 17.0293 1.2538 16.7685 1.51921C16.4619 1.80291 16.1736 2.10035 15.8624 2.41609C15.7069 2.57624 15.5467 2.7364 15.3865 2.90113L14.0229 4.26476C13.7392 4.54847 13.5928 4.83675 13.5928 5.12046C13.5928 5.40416 13.7392 5.69245 14.0229 5.97615C14.1648 6.11801 14.3066 6.26444 14.4485 6.40629C14.874 6.83643 15.2721 7.24368 15.7114 7.63264C15.7206 7.64179 15.7252 7.64636 15.7343 7.65552C16.1141 8.03532 16.0546 8.39682 15.9631 8.67137C15.9585 8.6851 15.9539 8.69425 15.9494 8.70798C15.597 9.55452 15.1074 10.3599 14.3432 11.3208C12.9704 13.0139 11.5245 14.3272 9.932 15.3385C9.7353 15.4666 9.5248 15.5673 9.328 15.668C9.145 15.7595 8.9757 15.8464 8.8247 15.9425C8.8064 15.9517 8.7926 15.9608 8.7743 15.97C8.6233 16.0478 8.4769 16.0844 8.3305 16.0844C7.9644 16.0844 7.7264 15.851 7.6487 15.7732L5.9373 14.0618C5.6719 13.7964 5.3836 13.6545 5.0999 13.6545C4.7521 13.6545 4.4684 13.8696 4.2899 14.0618L1.5307 16.8165C0.981501 17.3656 0.986099 17.9605 1.5444 18.5416C1.7366 18.7475 1.9379 18.9443 2.153 19.1502C2.4733 19.4614 2.8073 19.7817 3.1093 20.1432C3.6356 20.7106 4.2625 20.976 5.0724 20.976C5.1502 20.976 5.2326 20.9714 5.3104 20.9669C6.8113 20.8708 8.2069 20.2851 9.2548 19.7863C12.101 18.4089 14.5995 16.455 16.6724 13.9749C18.3792 11.9203 19.5278 10.0075 20.2874 7.95753C20.7587 6.69915 20.9371 5.68787 20.8639 4.76811Z" fill="black"/>
</g>
<defs>
<clipPath id="clip0_425_2">
<rect width="22" height="23" fill="white" transform="matrix(-1 0 0 1 22 0)"/>
</clipPath>
</defs>
</svg>
