<svg width="22" height="23" viewBox="0 0 22 23" fill="none" xmlns="http://www.w3.org/2000/svg">
<path d="M4.4582 14.6796C6.63634 17.2833 9.25834 19.3333 12.251 20.7838C13.3904 21.3238 14.9142 21.9644 16.6118 22.0742C16.7171 22.0788 16.8178 22.0834 16.923 22.0834C18.0624 22.0834 18.9776 21.6899 19.7235 20.8799C19.728 20.8754 19.7372 20.8662 19.7418 20.857C20.0072 20.5367 20.3092 20.2485 20.6249 19.9419C20.84 19.7359 21.0596 19.5209 21.2701 19.3012C22.2448 18.2854 22.2448 16.995 21.261 16.0111L18.5109 13.261C18.0441 12.776 17.4858 12.5197 16.9001 12.5197C16.3144 12.5197 15.7516 12.776 15.2711 13.2564L13.6329 14.8946C13.4819 14.8077 13.3263 14.7299 13.1799 14.6567C12.9969 14.5652 12.8276 14.4782 12.6766 14.3821C11.1848 13.4349 9.83033 12.1994 8.53535 10.6116C7.88099 9.78332 7.4417 9.08778 7.13512 8.37851C7.56525 7.98956 7.96793 7.5823 8.35689 7.1842C8.49416 7.04234 8.63602 6.90049 8.77787 6.75864C9.27207 6.26444 9.53747 5.69245 9.53747 5.1113C9.53747 4.53016 9.27665 3.95817 8.77787 3.46397L7.41425 2.10035C7.25409 1.94019 7.10308 1.78461 6.9475 1.62445C6.64549 1.31329 6.32975 0.992975 6.01859 0.704692C5.54727 0.242524 4.99358 0 4.40787 0C3.82672 0 3.26846 0.242524 2.77884 0.709268L1.06744 2.42066C0.445118 3.04299 0.0927718 3.79801 0.0195571 4.67202C-0.0673854 5.76566 0.133955 6.92795 0.65561 8.33275C1.4564 10.5063 2.66444 12.5243 4.4582 14.6796ZM1.13608 4.76811C1.19099 4.15951 1.42436 3.65159 1.86365 3.2123L3.5659 1.51005C3.8313 1.2538 4.12416 1.1211 4.40787 1.1211C4.687 1.1211 4.9707 1.2538 5.23153 1.51921C5.53812 1.80291 5.8264 2.10035 6.13756 2.41609C6.29315 2.57624 6.4533 2.7364 6.61346 2.90113L7.97708 4.26476C8.26079 4.54847 8.40722 4.83675 8.40722 5.12046C8.40722 5.40416 8.26079 5.69245 7.97708 5.97615C7.83523 6.11801 7.69338 6.26444 7.55152 6.40629C7.12596 6.83643 6.72786 7.24368 6.28857 7.63264C6.27942 7.64179 6.27484 7.64636 6.26569 7.65552C5.88589 8.03532 5.94538 8.39682 6.03689 8.67137C6.04147 8.6851 6.04605 8.69425 6.05062 8.70798C6.40297 9.55452 6.89259 10.3599 7.65677 11.3208C9.02955 13.0139 10.4755 14.3272 12.068 15.3385C12.2647 15.4666 12.4752 15.5673 12.672 15.668C12.855 15.7595 13.0243 15.8464 13.1753 15.9425C13.1936 15.9517 13.2074 15.9608 13.2257 15.97C13.3767 16.0478 13.5231 16.0844 13.6695 16.0844C14.0356 16.0844 14.2736 15.851 14.3513 15.7732L16.0627 14.0618C16.3281 13.7964 16.6164 13.6545 16.9001 13.6545C17.2479 13.6545 17.5316 13.8696 17.7101 14.0618L20.4693 16.8165C21.0185 17.3656 21.0139 17.9605 20.4556 18.5416C20.2634 18.7475 20.0621 18.9443 19.847 19.1502C19.5267 19.4614 19.1927 19.7817 18.8907 20.1432C18.3644 20.7106 17.7375 20.976 16.9276 20.976C16.8498 20.976 16.7674 20.9714 16.6896 20.9669C15.1887 20.8708 13.7931 20.2851 12.7452 19.7863C9.89897 18.4089 7.40052 16.455 5.32763 13.9749C3.62081 11.9203 2.47225 10.0075 1.71265 7.95753C1.24133 6.69915 1.06287 5.68787 1.13608 4.76811Z" fill="#F8F8F8"/>
</svg>
