<svg width="27" height="22" viewBox="0 0 27 22" fill="none" xmlns="http://www.w3.org/2000/svg">
<path d="M26.5996 0.602305C26.282 0.213862 25.8063 0 25.2599 0C24.9629 0 24.6483 0.0624921 24.3249 0.186088L2.31379 8.5884C1.14569 9.03418 0.988367 9.70314 0.998484 10.0622C1.0086 10.4213 1.20362 11.0803 2.39513 11.4595C2.40228 11.4616 2.40942 11.4638 2.41656 11.4658L6.98225 12.7724L9.45139 19.833C9.78805 20.7956 10.5437 21.3935 11.4238 21.3935C11.9786 21.3935 12.5244 21.161 13.0021 20.7214L15.8262 18.1211L19.9223 21.4193C19.9227 21.4197 19.9233 21.4199 19.9237 21.4203L19.9626 21.4517C19.9661 21.4544 19.9699 21.4574 19.9735 21.4602C20.4288 21.8133 20.9257 21.9998 21.4112 22H21.4114C22.3599 22 23.1151 21.2979 23.3351 20.2115L26.9416 2.40347C27.0865 1.68868 26.965 1.04907 26.5996 0.602305ZM8.50964 12.5242L17.3182 8.02419L11.8334 13.8522C11.7436 13.9476 11.6799 14.0645 11.6485 14.1917L10.5909 18.4756L8.50964 12.5242ZM11.9699 19.6005C11.9334 19.634 11.8967 19.664 11.86 19.6916L12.8412 15.7175L14.6261 17.1548L11.9699 19.6005ZM25.4484 2.10093L21.8419 19.9092C21.8072 20.0796 21.6963 20.4762 21.4112 20.4762C21.2703 20.4762 21.0934 20.3994 20.9122 20.2599L16.2708 16.5227C16.2702 16.5221 16.2694 16.5215 16.2686 16.5211L13.5068 14.2972L21.4386 5.8691C21.6925 5.59929 21.7155 5.18605 21.4931 4.88966C21.2705 4.59327 20.8672 4.50003 20.5373 4.66866L7.49171 11.3333L2.86392 10.0093L24.8683 1.60952C25.0542 1.5385 25.1839 1.52362 25.2599 1.52362C25.3065 1.52362 25.3895 1.52917 25.4202 1.56706C25.4607 1.61646 25.5123 1.78489 25.4484 2.10093Z" fill="#F8F8F8"/>
</svg>
