<svg width="22" height="22" viewBox="0 0 22 22" fill="none" xmlns="http://www.w3.org/2000/svg">
<path d="M16.5038 13.2446L15.3379 12.0787C15.0198 11.7606 14.5802 11.6011 14.1325 11.6414C13.6845 11.6816 13.2806 11.9166 13.0242 12.2861L12.6181 12.8713C12.0657 12.7729 10.9972 12.4945 10.2503 11.7475C9.50316 11.0003 9.22473 9.93133 9.1265 9.37983L9.71191 8.97364C10.0814 8.71721 10.3164 8.31317 10.3565 7.86518C10.3967 7.41719 10.2373 6.97787 9.91927 6.65991L8.75336 5.49399C8.28483 5.0255 7.57864 4.9137 6.99598 5.2156C5.97435 5.74489 5.30327 6.73704 5.10613 8.00925C4.78502 10.082 5.74327 12.5274 7.60687 14.391C9.2322 16.0163 11.2999 16.9529 13.1771 16.9529C13.4523 16.9529 13.7236 16.9328 13.9885 16.8918C15.2608 16.6947 16.253 16.0235 16.7822 15.0019C16.7822 15.0019 16.7822 15.0019 16.7823 15.0019C17.0841 14.4192 16.9723 13.713 16.5038 13.2446ZM15.596 14.3873C15.1753 15.1992 14.3785 15.4793 13.7841 15.5714C12.1497 15.8245 10.0958 14.9904 8.55158 13.4462C7.00741 11.902 6.17321 9.84819 6.42639 8.21379C6.51842 7.61936 6.79867 6.82254 7.61052 6.40188C7.63252 6.39053 7.65684 6.38499 7.6815 6.38499C7.72688 6.38499 7.77346 6.40368 7.80852 6.4387L8.97448 7.60466C9.0229 7.65317 9.02909 7.70826 9.02569 7.74594C9.0223 7.78367 9.00649 7.83678 8.95011 7.87588L8.02916 8.51491C7.83658 8.64854 7.72808 8.87344 7.74342 9.10736C7.74922 9.19571 7.90116 11.2878 9.30555 12.6922C10.7099 14.0966 12.802 14.2486 12.8903 14.2543C13.1241 14.2694 13.3492 14.1612 13.4828 13.9685L14.1219 13.0476C14.1609 12.9913 14.2141 12.9755 14.2518 12.9721C14.2895 12.9686 14.3446 12.9749 14.3931 13.0233L15.559 14.1892C15.6132 14.2433 15.6284 14.3248 15.596 14.3873Z" fill="black"/>
<path d="M18.778 3.22197C16.7003 1.14421 13.9379 0 10.9995 0C8.06118 0 5.2988 1.14421 3.22109 3.22193C1.4552 4.98781 0.334149 7.32493 0.0643048 9.80276C-0.190801 12.1452 0.318293 14.5295 1.49942 16.5506L0.353098 20.8287C0.291309 21.0592 0.357223 21.3052 0.526047 21.474C0.694785 21.6427 0.940867 21.7086 1.17127 21.6469L5.44932 20.5006C7.12957 21.4825 9.06097 22 11.0105 22C11.4059 22 11.8022 21.9787 12.1972 21.9357C14.675 21.6659 17.0122 20.5448 18.778 18.7788C20.8558 16.7012 22 13.9387 22 11.0004C22 8.06214 20.8557 5.29968 18.778 3.22197ZM17.8333 17.8341C14.6393 21.028 9.73365 21.5955 5.90354 19.2144C5.79664 19.148 5.6743 19.1137 5.55077 19.1137C5.49293 19.1137 5.43484 19.1213 5.37791 19.1365L1.94311 20.0569L2.8635 16.6221C2.91128 16.4437 2.88305 16.2534 2.78556 16.0965C0.40436 12.2662 0.971976 7.36055 4.1658 4.16668C7.93399 0.398578 14.0651 0.398578 17.8333 4.16668C21.6014 7.93478 21.6014 14.066 17.8333 17.8341Z" fill="#F8F8F8"/>
</svg>
